PathFileType	4	(X/Y/Z)	/Users/itak/Documents/Research/Walk-IL/dataset/trc/00102_00007.trc
DataRate	CameraRate	NumFrames	NumMarkers	Units	OrigDataRate	OrigDataStartFrame	OrigNumFrames
100.000000	100.000000	4	53	mm	100.000000	353	565
Frame#	Time	RPSI			LPSI			L3			STRN			T10			C7			CLAV			RBAK			LBAK			LSHO			LUPA			LAEL			LAOL			LWTS			LWPS			LFRA			LIFD			LHPS			LHTS			RSHO			RUPA			RAEL			RAOL			RWTS			RWPS			RFRA			RIFD			RHTS			RHPS			RBHD			LFHD			RFHD			LBHD			LHIP			RHIP			RASI			LASI			LKNE			LTHI			LANK			LTIP			LTOE			LMT1			LMT5			LHEE			RKNE			RTHI			RANK			RTIP			RTOE			RMT1			RMT5			RHEE			
		X1	Y1	Z1	X2	Y2	Z2	X3	Y3	Z3	X4	Y4	Z4	X5	Y5	Z5	X6	Y6	Z6	X7	Y7	Z7	X8	Y8	Z8	X9	Y9	Z9	X10	Y10	Z10	X11	Y11	Z11	X12	Y12	Z12	X13	Y13	Z13	X14	Y14	Z14	X15	Y15	Z15	X16	Y16	Z16	X17	Y17	Z17	X18	Y18	Z18	X19	Y19	Z19	X20	Y20	Z20	X21	Y21	Z21	X22	Y22	Z22	X23	Y23	Z23	X24	Y24	Z24	X25	Y25	Z25	X26	Y26	Z26	X27	Y27	Z27	X28	Y28	Z28	X29	Y29	Z29	X30	Y30	Z30	X31	Y31	Z31	X32	Y32	Z32	X33	Y33	Z33	X34	Y34	Z34	X35	Y35	Z35	X36	Y36	Z36	X37	Y37	Z37	X38	Y38	Z38	X39	Y39	Z39	X40	Y40	Z40	X41	Y41	Z41	X42	Y42	Z42	X43	Y43	Z43	X44	Y44	Z44	X45	Y45	Z45	X46	Y46	Z46	X47	Y47	Z47	X48	Y48	Z48	X49	Y49	Z49	X50	Y50	Z50	X51	Y51	Z51	X52	Y52	Z52	X53	Y53	Z53	

354	3.53	-166.3940582275391	1109.591918945312	-269.1060180664062	-160.6121063232422	1119.640625	-404.1855163574219	-171.9725494384766	1153.566772460938	-341.25390625	46.98657989501953	1357.044921875	-329.8369140625	-205.1759796142578	1308.31005859375	-347.5983581542969	-160.0404663085938	1598.885986328125	-365.8363952636719	16.83186721801758	1493.5107421875	-335.0857849121094	-224.8010559082031	1416.322875976562	-282.0968627929688	-157.2106475830078	1578.672241210938	-467.8594665527344	-63.32001113891602	1566.462524414062	-523.3079223632812	-58.12558364868164	1437.056274414062	-596.2745361328125	8.822818756103516	1229.112548828125	-624.4628295898438	-49.27771377563477	1195.066650390625	-570.5123291015625	189.9619445800781	1021.526306152344	-591.8059692382812	121.0632247924805	968.0415649414062	-617.5271606445312	60.82504653930664	1124.688598632812	-632.56103515625	271.5426940917969	847.202880859375	-576.387939453125	175.444091796875	908.7617797851562	-621.4627685546875	235.8106842041016	944.13525390625	-606.6577758789062	-124.2500305175781	1581.893432617188	-178.3574523925781	-151.2213134765625	1511.25048828125	-117.0746841430664	-196.2587432861328	1222.401000976562	-96.79398345947266	-190.6133117675781	1221.275756835938	-193.7625427246094	-81.93502044677734	964.0820922851562	-96.64598846435547	-160.3449554443359	956.7493896484375	-72.91743469238281	-182.9021759033203	1147.30712890625	-78.99845123291016	-82.3240966796875	767.0382690429688	-115.4489212036133	-68.29277038574219	851.8577270507812	-91.22489166259766	-137.1524505615234	853.12451171875	-67.28264617919922	-128.5981750488281	1766.838989257812	-279.0783386230469	30.74222946166992	1839.28955078125	-415.1473693847656	29.31047821044922	1849.537109375	-286.14599609375	-135.5391082763672	1759.890258789062	-415.7040100097656	-63.84918594360352	1037.2705078125	-513.87841796875	-31.74951553344727	1020.151123046875	-151.6038513183594	41.13746643066406	1100.109375	-203.3811187744141	41.18087387084961	1102.122680664062	-469.793212890625	-32.08301162719727	532.8714599609375	-459.3649597167969	-53.63212966918945	678.0625610351562	-494.6570434570312	-141.8631591796875	30.77958679199219	-415.772705078125	-132.5810699462891	283.6152648925781	-468.1827697753906	88.22452545166016	38.56901550292969	-355.6232299804688	7.15519905090332	45.25391006469727	-323.4786376953125	-17.20805549621582	31.69443702697754	-441.2720031738281	-211.6692047119141	36.16719055175781	-355.4263916015625	155.4761352539062	566.3062744140625	-194.7565002441406	59.09447860717773	828.86962890625	-158.1857604980469	16.4265193939209	55.64443969726562	-175.8099060058594	123.3084030151367	431.1275634765625	-174.9026336669922	245.1089172363281	73.53357696533203	-202.9352264404297	193.7611389160156	54.03304672241211	-250.799560546875	144.5950317382812	57.14082717895508	-140.4606781005859	-35.78759765625	60.54826354980469	-230.0856475830078	
355	3.54	-158.7929840087891	1109.260498046875	-268.7460021972656	-153.3909454345703	1119.145385742188	-403.8406372070312	-164.5813903808594	1153.105712890625	-340.9257202148438	54.35528182983398	1356.41552734375	-329.8774108886719	-197.8330993652344	1307.822875976562	-347.3562622070312	-152.6435699462891	1598.330078125	-365.3955383300781	24.27982711791992	1492.905883789062	-334.8433227539062	-217.3628234863281	1415.675659179688	-281.8809204101562	-149.8245239257812	1578.293701171875	-467.4783020019531	-55.93281173706055	1566.210205078125	-522.8960571289062	-50.51936340332031	1436.891357421875	-595.9581909179688	17.71587371826172	1229.381225585938	-624.0347900390625	-39.81410980224609	1194.670776367188	-569.9872436523438	202.9443206787109	1025.813110351562	-591.100830078125	135.2610473632812	970.6395263671875	-616.4447631835938	71.41978454589844	1125.852905273438	-631.9973754882812	288.9161071777344	853.7255859375	-575.3263549804688	191.0746307373047	912.6873168945312	-620.311279296875	250.6410980224609	949.6031494140625	-605.8527221679688	-116.7478103637695	1581.035522460938	-177.9245758056641	-143.7598419189453	1510.336059570312	-116.7460784912109	-189.2513885498047	1221.580444335938	-97.20821380615234	-183.3086700439453	1220.615844726562	-194.1737365722656	-76.43807220458984	962.606689453125	-97.15522003173828	-154.9460906982422	955.755615234375	-73.65762329101562	-176.3128662109375	1146.428588867188	-79.50653076171875	-78.03496551513672	765.5825805664062	-116.232307434082	-63.52570343017578	850.255126953125	-91.85679626464844	-132.4859771728516	851.9581909179688	-68.13315582275391	-120.9011459350586	1766.374877929688	-278.6480712890625	38.35990142822266	1838.62060546875	-414.4895629882812	37.01271438598633	1848.778198242188	-285.4812622070312	-127.9959869384766	1759.418334960938	-415.0258483886719	-57.37593460083008	1036.592041015625	-513.8450317382812	-23.92527198791504	1019.888305664062	-151.3900146484375	48.86103439331055	1099.658935546875	-203.5476226806641	48.18113327026367	1101.38037109375	-470.0025329589844	-27.54443359375	532.1585083007812	-458.6849060058594	-48.28460311889648	677.4486083984375	-494.0996704101562	-141.7249908447266	31.08236694335938	-415.4601135253906	-129.9158172607422	283.4916381835938	-467.8572387695312	88.77179718017578	38.05907440185547	-355.2522888183594	7.342117786407471	44.92184448242188	-323.1988525390625	-17.19107627868652	31.8043155670166	-441.1174621582031	-211.5989074707031	36.43283081054688	-355.1184997558594	163.7162780761719	566.6128540039062	-194.2149047851562	66.85126495361328	828.7423095703125	-157.8188171386719	44.39506912231445	51.40572357177734	-177.0203552246094	136.2454528808594	430.5946350097656	-174.4888153076172	272.5579833984375	76.74879455566406	-202.8725128173828	222.172607421875	55.77028656005859	-250.9645690917969	172.1817321777344	57.36191940307617	-140.9085083007812	-7.741978645324707	54.65150451660156	-231.5188903808594	
356	3.55	-151.1322021484375	1108.845092773438	-268.3599548339844	-146.1080627441406	1118.605712890625	-403.4659423828125	-157.1020050048828	1152.5712890625	-340.5567932128906	61.78804016113281	1355.716186523438	-329.8632507324219	-190.4277801513672	1307.243408203125	-347.046875	-145.2356109619141	1597.686157226562	-364.8929443359375	31.75729560852051	1492.221435546875	-334.5650939941406	-209.8870544433594	1414.928588867188	-281.5953063964844	-142.4441070556641	1577.827880859375	-467.0305786132812	-48.55972290039062	1565.871459960938	-522.4415893554688	-43.00080490112305	1436.624145507812	-595.59375	26.41938972473145	1229.517578125	-623.5452880859375	-30.64984893798828	1194.191284179688	-569.4556884765625	215.5025177001953	1029.950439453125	-590.21728515625	149.0868835449219	973.1602172851562	-615.2738647460938	81.75559997558594	1126.886840820312	-631.341796875	305.594970703125	860.0419311523438	-573.9973754882812	206.2508850097656	916.5260009765625	-619.0169067382812	264.986083984375	954.924072265625	-604.8316650390625	-109.2155685424805	1580.096801757812	-177.4411468505859	-136.2472686767578	1509.336059570312	-116.3603591918945	-182.1099090576172	1220.660400390625	-97.52983856201172	-175.8871612548828	1219.847412109375	-194.4905090332031	-70.71359252929688	961.0907592773438	-97.58248901367188	-149.2924346923828	954.6876831054688	-74.2967529296875	-169.5614318847656	1145.45263671875	-79.92626190185547	-73.42185211181641	764.0965576171875	-116.9182739257812	-58.46081161499023	848.631591796875	-92.39567565917969	-127.5211791992188	850.7335205078125	-68.87969207763672	-113.2067337036133	1765.839965820312	-278.1530151367188	45.98885726928711	1837.875854492188	-413.7929077148438	44.74263763427734	1847.93603515625	-284.7763366699219	-120.4531707763672	1758.892333984375	-414.3004455566406	-50.87985229492188	1035.89990234375	-513.8037109375	-16.06657218933105	1019.492553710938	-151.1207885742188	56.61639404296875	1099.091796875	-203.6433715820312	55.24677658081055	1100.580322265625	-470.1307983398438	-22.9818058013916	531.421630859375	-458.0284729003906	-42.90874481201172	676.8142700195312	-493.5475769042969	-141.5976104736328	31.36496734619141	-415.169677734375	-127.2690277099609	283.3667602539062	-467.5537719726562	89.26216888427734	37.60437774658203	-354.9277038574219	7.525557518005371	44.65383911132812	-322.954345703125	-17.18385696411133	31.9070930480957	-440.9719543457031	-211.5305633544922	36.70380401611328	-354.8298034667969	171.5061950683594	566.6162109375	-193.5013580322266	74.42058563232422	828.3775024414062	-157.4408416748047	72.18968200683594	47.6629524230957	-178.5018157958984	148.8153381347656	429.9220275878906	-174.0209197998047	299.5393676757812	80.32135772705078	-203.0789031982422	250.1888122558594	57.98895263671875	-251.41015625	199.4346771240234	57.95497894287109	-141.6387939453125	20.18400955200195	49.3148078918457	-233.2128448486328	
357	3.56	-143.4098510742188	1108.337890625	-267.9402465820312	-138.7669982910156	1118.021362304688	-403.0520629882812	-149.5326232910156	1151.961547851562	-340.1380920410156	69.29238128662109	1354.948852539062	-329.7903442382812	-182.9569244384766	1306.572631835938	-346.6618347167969	-137.8098297119141	1596.955810546875	-364.3311462402344	39.2700309753418	1491.45849609375	-334.2494812011719	-202.3682708740234	1414.083618164062	-281.2391052246094	-135.0639801025391	1577.273193359375	-466.5177917480469	-41.1948356628418	1565.443481445312	-521.9468383789062	-35.55850219726562	1436.2509765625	-595.1819458007812	34.93529510498047	1229.512817382812	-622.9983520507812	-21.76541709899902	1193.62060546875	-568.9067993164062	227.6361083984375	1033.90234375	-589.1734008789062	162.5194244384766	975.57373046875	-614.0200805664062	91.82871246337891	1127.77490234375	-630.5980224609375	321.5847473144531	866.1235961914062	-572.4366455078125	220.9499206542969	920.2373657226562	-617.5919189453125	278.8310852050781	960.0447998046875	-603.618408203125	-101.6494827270508	1579.081176757812	-176.9091796875	-128.6829223632812	1508.256713867188	-115.9202575683594	-174.8419494628906	1219.646362304688	-97.75058746337891	-168.3610992431641	1218.976806640625	-194.7051849365234	-64.74782562255859	959.544921875	-97.93241119384766	-143.3680114746094	953.5503540039062	-74.82662963867188	-162.6475219726562	1144.3857421875	-80.25021362304688	-68.46435546875	762.5888671875	-117.5209045410156	-53.07660675048828	846.9971313476562	-92.85257720947266	-122.2294311523438	849.4562377929688	-69.51929473876953	-105.5181884765625	1765.223999023438	-277.5820922851562	53.63018798828125	1837.06103515625	-413.0577697753906	52.49748229980469	1847.013549804688	-284.0303344726562	-112.9087600708008	1758.310668945312	-413.5293884277344	-44.33658981323242	1035.197143554688	-513.7428588867188	-8.159520149230957	1018.95654296875	-150.7978363037109	64.41223907470703	1098.404052734375	-203.6691131591797	62.37528610229492	1099.726196289062	-470.1787719726562	-18.40342330932617	530.6619262695312	-457.4234619140625	-37.51723098754883	676.1644897460938	-493.0233764648438	-141.4841461181641	31.62448501586914	-414.9098205566406	-124.6543579101562	283.2459106445312	-467.2828674316406	89.68843078613281	37.21098709106445	-354.6546020507812	7.703315258026123	44.44929885864258	-322.7539367675781	-17.1837100982666	31.998779296875	-440.8450927734375	-211.4645385742188	36.9843864440918	-354.5697631835938	178.8757934570312	566.3172607421875	-192.6224060058594	81.81133270263672	827.7742309570312	-157.0350799560547	99.75373077392578	44.42826080322266	-180.2289886474609	161.0102081298828	429.125244140625	-173.502197265625	325.9918823242188	84.32408905029297	-203.6413269042969	277.7149658203125	60.75285339355469	-252.2027130126953	226.3298492431641	58.93778991699219	-142.6942749023438	47.90950775146484	44.55661773681641	-235.1047058105469	
